PathFileType	4	(X/Y/Z)	8_coords_data.trc
DataRate	CameraRate	NumFrames	NumMarkers	Units	OrigDataRate	OrigDataStartFrame	OrigNumFrames
30.0	30.0	7	21	m	30.0	29	56
Frame#	Time	THUMB_TIP	THUMB_IP	THUMB_MCP	THUMB_CMC	INDEX_TIP	INDEX_DIP	INDEX_PIP	INDEX_MCP	MIDDLE_TIP	MIDDLE_DIP	MIDDLE_PIP	MIDDLE_MCP	RING_TIP	RING_DIP	RING_PIP	RING_MCP	PINKY_TIP	PINKY_DIP	PINKY_PIP	PINKY_MCP	WRIST
X1	Y1	Z1	X2	Y2	Z2	X3	Y3	Z3	X4	Y4	Z4	X5	Y5	Z5	X6	Y6	Z6	X7	Y7	Z7	X8	Y8	Z8	X9	Y9	Z9	X10	Y10	Z10	X11	Y11	Z11	X12	Y12	Z12	X13	Y13	Z13	X14	Y14	Z14	X15	Y15	Z15	X16	Y16	Z16	X17	Y17	Z17	X18	Y18	Z18	X19	Y19	Z19	X20	Y20	Z20	X21	Y21	Z21
28	0.9333333333333333	-0.04658539962768555	-0.05860540008544922	0.946551025390625	-0.036511100769042966	-0.04490390014648438	0.9653380126953125	-0.03085689926147461	-0.03217079925537109	0.9884310302734375	-0.04371260070800781	-0.01142389965057373	1.0020700073242188	-0.00964797019958496	-0.13603300476074218	0.9770029907226563	-0.01512969970703125	-0.11593699645996093	0.9831010131835938	-0.02301729965209961	-0.09971990203857421	0.992114990234375	-0.03837060165405273	-0.06927639770507812	1.006739990234375	-0.04034310150146484	-0.04592770004272461	0.9836690063476563	-0.037618301391601563	-0.05923529815673828	0.9712080078125	-0.0426974983215332	-0.08232530212402343	0.9719879760742187	-0.06151810073852539	-0.07069709777832031	1.005780029296875	-0.05013460159301758	-0.04315119934082031	0.970551025390625	-0.052980899810791016	-0.059909000396728515	0.9624739990234376	-0.06460890197753906	-0.08009870147705078	0.96664501953125	-0.07415769958496093	-0.06304690170288085	0.9934190063476562	-0.11062599945068359	-0.10372000122070313	0.9664030151367188	-0.10199800109863282	-0.0857656021118164	0.9715289916992188	-0.09549539947509765	-0.07247409820556641	0.9768090209960938	-0.08299849700927735	-0.05142330169677734	0.9819550170898438	-0.06707679748535156	-0.00015145699679851502	1.02556005859375
29	0.9666666666666667	-0.046600299835205077	-0.058853401184082034	0.9464439697265625	-0.036270301818847654	-0.045186798095703126	0.9652150268554688	-0.030697900772094725	-0.032586898803710934	0.9881270141601562	-0.04364739990234375	-0.011806699752807617	1.0019500122070313	-0.009846830368041992	-0.136447998046875	0.976677001953125	-0.015275799751281738	-0.11640899658203124	0.9827730102539063	-0.02310040092468262	-0.10016999816894531	0.9918690185546875	-0.03821829986572266	-0.0696843032836914	1.0063200073242187	-0.040370098114013674	-0.046233200073242185	0.9841110229492187	-0.03752339935302734	-0.059452301025390626	0.9711840209960938	-0.04265489959716797	-0.08260990142822265	0.9717340087890625	-0.06144390106201172	-0.07116690063476562	1.0056099853515625	-0.04998820114135742	-0.043425498962402345	0.970572021484375	-0.052874099731445315	-0.06014630126953125	0.9624019775390625	-0.06454509735107422	-0.08034200286865234	0.9663079833984375	-0.07405670166015625	-0.0632254981994629	0.9929730224609375	-0.11024199676513671	-0.10373200225830079	0.9651900024414063	-0.10168199920654297	-0.08576429748535157	0.9705289916992188	-0.09521119689941407	-0.07262699890136719	0.9760130004882812	-0.08278189849853515	-0.05155820083618164	0.98152001953125	-0.06695780181884765	-0.000526030004024505	1.0254300537109375
30	1.0	-0.04663940048217773	-0.05915399932861328	0.9463109741210938	-0.03620880126953125	-0.045562198638916016	0.96502197265625	-0.030474599838256837	-0.03292010116577149	0.98822998046875	-0.04343970108032227	-0.012108799934387206	1.00177001953125	-0.010405300140380859	-0.13679400634765626	0.9760020141601562	-0.015723199844360353	-0.11681999969482422	0.9823070068359375	-0.023479799270629882	-0.10059600067138671	0.9914569702148438	-0.03857070159912109	-0.0701168975830078	1.0066199951171875	-0.040211299896240234	-0.04659659957885742	0.9839169921875	-0.03764649963378906	-0.060014301300048825	0.9707919921875	-0.04277750015258789	-0.08292610168457032	0.9714959716796875	-0.06160269927978516	-0.07146109771728516	1.00522998046875	-0.04995949935913086	-0.04388359832763672	0.9702689819335938	-0.052947898864746094	-0.060372398376464846	0.9621199951171875	-0.06488510131835938	-0.08049420166015625	0.965781005859375	-0.0741322021484375	-0.06341709899902344	0.99260400390625	-0.11015799713134766	-0.1035469970703125	0.964135009765625	-0.10162200164794923	-0.0856968994140625	0.9697150268554687	-0.09510310363769531	-0.07252850341796875	0.9752319946289062	-0.08270269775390625	-0.05153139877319336	0.9810330200195313	-0.06681590270996093	-0.000689261972904205	1.02518994140625
31	1.0333333333333334	-0.046376598358154296	-0.05923509979248047	0.9460150146484375	-0.03596179962158203	-0.04581890106201172	0.9647750244140625	-0.0304556999206543	-0.033321800231933596	0.987822998046875	-0.04331940078735352	-0.012400799751281739	1.00152001953125	-0.011768899917602538	-0.1368710021972656	0.9741510009765625	-0.01685530090332031	-0.11705599975585937	0.9811290283203125	-0.02437689971923828	-0.1009739990234375	0.9906640014648438	-0.03896960067749024	-0.07056179809570312	1.0058499755859376	-0.04033240127563477	-0.04674470138549805	0.982739990234375	-0.03743220138549805	-0.06001020050048828	0.9711589965820312	-0.0430526008605957	-0.08309429931640624	0.9708660278320312	-0.06214889907836914	-0.07152590179443359	1.0046300048828125	-0.04974720001220703	-0.043950801849365236	0.9702420043945312	-0.053023700714111326	-0.060472801208496095	0.961676025390625	-0.06532360076904296	-0.08038490295410156	0.9648699951171875	-0.07443740081787109	-0.06318360137939454	0.9918980102539062	-0.10936399841308594	-0.10286900329589843	0.9612780151367187	-0.10116799926757812	-0.08512049865722657	0.9676019897460938	-0.0948125991821289	-0.07214569854736329	0.9735089721679687	-0.08263240051269531	-0.05112129974365234	0.98014599609375	-0.0666510009765625	-0.000890415012836456	1.0248800048828124
32	1.0666666666666667	-0.04417580032348633	-0.058835399627685546	0.9453380126953125	-0.034422100067138674	-0.04565890121459961	0.9650260009765625	-0.029647600173950194	-0.033408798217773435	0.988280029296875	-0.04299390029907227	-0.01247350025177002	1.001760009765625	-0.013964099884033203	-0.1367949981689453	0.9715180053710938	-0.01861720085144043	-0.11733499908447266	0.9795380249023438	-0.025773099899291992	-0.10159100341796876	0.98968798828125	-0.039584400177001954	-0.07104869842529297	1.0054400024414063	-0.03954280090332031	-0.04666139984130859	0.9834849853515625	-0.036679100036621094	-0.0598931999206543	0.9708480224609375	-0.04306959915161133	-0.0829384994506836	0.969875	-0.0625260009765625	-0.07138459777832032	1.0034500122070313	-0.04820220184326172	-0.04307979965209961	0.9701929931640625	-0.05177040100097656	-0.059628799438476564	0.9613829956054688	-0.06439589691162109	-0.07959420013427734	0.9632529907226562	-0.07431960296630859	-0.06241910171508789	0.990583984375	-0.10461699676513672	-0.10097799682617188	0.9535419921875	-0.09783889770507813	-0.08361470031738281	0.9619089965820312	-0.09261710357666016	-0.07094869995117188	0.9695540161132813	-0.08172989654541016	-0.04993230056762695	0.9783889770507812	-0.06662039947509765	-0.001020699977874755	1.0248199462890626
33	1.1	-0.038503799438476566	-0.057516899108886715	0.9437550048828125	-0.031141000747680662	-0.04509339904785156	0.9651890258789062	-0.028213300704956056	-0.03339530181884766	0.9889630126953125	-0.04211270141601563	-0.012339200019836426	1.0019099731445313	-0.01745039939880371	-0.13557499694824218	0.9665139770507812	-0.02168720054626465	-0.1168499984741211	0.9763729858398438	-0.02851300048828125	-0.10171399688720703	0.987698974609375	-0.04111629867553711	-0.07139910125732422	1.004489990234375	-0.0381416015625	-0.046052799224853516	0.9832160034179688	-0.03578779983520508	-0.059166698455810546	0.9696900024414062	-0.043398300170898435	-0.08180229949951172	0.9679509887695312	-0.0634625015258789	-0.07047489929199219	1.0011500244140625	-0.044839401245117184	-0.040959400177001955	0.968989990234375	-0.04929679870605469	-0.05735200119018555	0.9600390014648438	-0.06294800186157226	-0.07715399932861328	0.9606019897460938	-0.07407779693603515	-0.06037310028076172	0.9876680297851562	-0.09836699676513672	-0.09677110290527344	0.9443790283203125	-0.09342469787597656	-0.08004049682617187	0.9550499877929688	-0.08954679870605468	-0.06771289825439453	0.964552978515625	-0.08031500244140626	-0.04732410049438476	0.9758560180664062	-0.06623519897460937	-0.000565715014934539	1.024760009765625
34	1.1333333333333333	-0.020743999481201172	-0.05624160003662109	0.9430819702148437	-0.02299690055847168	-0.044194698333740234	0.966781982421875	-0.026428800582885742	-0.03308409881591797	0.9902680053710937	-0.04148049926757812	-0.012035099983215333	1.0028400268554687	-0.023524700164794923	-0.13380799865722656	0.9600869750976563	-0.027737499237060547	-0.11623100280761718	0.97210498046875	-0.03456449890136719	-0.10180699920654297	0.9845819702148437	-0.045403598785400394	-0.07167539978027344	1.0019600219726563	-0.03576470184326172	-0.043124298095703124	0.9808489990234375	-0.0344390983581543	-0.0567218017578125	0.9682130126953125	-0.04416740036010742	-0.07884480285644531	0.9638469848632812	-0.06648359680175782	-0.06817250061035156	0.995791015625	-0.03832730102539063	-0.03541899871826172	0.9692899780273437	-0.04466170120239258	-0.051579200744628906	0.9589119873046875	-0.0596859016418457	-0.07072350311279296	0.9543610229492188	-0.07456009674072266	-0.05576449966430664	0.9819249877929688	-0.08733719635009765	-0.08519760131835938	0.9283280029296875	-0.08544400024414063	-0.07079149627685546	0.9420499877929688	-0.08422219848632813	-0.05990950012207031	0.9543870239257812	-0.07756739807128907	-0.04108639907836914	0.9706829833984375	-0.06652570343017578	0.0005589269995689391	1.024489990234375
